<svg xmlns="http://www.w3.org/2000/svg" xmlns:xlink="http://www.w3.org/1999/xlink" width="400" zoomAndPan="magnify" viewBox="0 0 300 299.999988" height="400" preserveAspectRatio="xMidYMid meet" version="1.0"><defs><clipPath id="2f1606b442"><path d="M 121 140 L 289.835938 140 L 289.835938 293.367188 L 121 293.367188 Z M 121 140 " clip-rule="nonzero"/></clipPath><clipPath id="6bf4369caa"><path d="M 10.085938 6.867188 L 284 6.867188 L 284 262 L 10.085938 262 Z M 10.085938 6.867188 " clip-rule="nonzero"/></clipPath></defs><g clip-path="url(#2f1606b442)"><path fill="#ffffff" d="M 256.371094 204.949219 L 252.148438 197.554688 L 246.769531 188.117188 L 232.488281 163.039062 L 226.84375 153.125 C 226.84375 153.105469 226.828125 153.105469 226.828125 153.074219 C 226.292969 152.144531 225.699219 151.253906 225.050781 150.40625 C 224.398438 149.554688 223.695312 148.75 222.9375 147.988281 C 222.183594 147.230469 221.378906 146.523438 220.53125 145.871094 C 219.679688 145.21875 218.792969 144.625 217.863281 144.089844 C 216.9375 143.550781 215.976562 143.078125 214.988281 142.667969 C 214 142.257812 212.984375 141.914062 211.949219 141.636719 C 210.914062 141.363281 209.867188 141.152344 208.804688 141.015625 C 207.742188 140.875 206.675781 140.804688 205.605469 140.808594 C 204.53125 140.808594 203.464844 140.878906 202.402344 141.023438 C 201.339844 141.164062 200.292969 141.375 199.257812 141.652344 C 198.226562 141.933594 197.214844 142.277344 196.222656 142.691406 C 195.234375 143.101562 194.277344 143.578125 193.351562 144.117188 C 192.425781 144.65625 191.539062 145.25 190.691406 145.90625 C 189.84375 146.5625 189.039062 147.269531 188.285156 148.03125 C 187.53125 148.789062 186.828125 149.597656 186.179688 150.449219 C 185.53125 151.300781 184.941406 152.191406 184.410156 153.125 L 154.914062 204.902344 L 136.589844 236.210938 L 131.765625 244.472656 L 124.792969 256.367188 C 122.78125 259.78125 121.652344 263.46875 121.410156 267.425781 C 121.289062 269.785156 121.511719 272.117188 122.074219 274.414062 C 122.636719 276.710938 123.515625 278.878906 124.710938 280.921875 C 124.726562 280.953125 124.761719 280.984375 124.777344 281.019531 C 125.300781 281.945312 125.882812 282.832031 126.523438 283.679688 C 127.167969 284.527344 127.863281 285.328125 128.613281 286.082031 C 129.359375 286.839844 130.15625 287.539062 131 288.1875 C 131.84375 288.835938 132.726562 289.425781 133.648438 289.953125 C 134.570312 290.484375 135.523438 290.953125 136.507812 291.355469 C 137.492188 291.757812 138.496094 292.089844 139.527344 292.359375 C 140.554688 292.628906 141.597656 292.824219 142.652344 292.953125 C 143.710938 293.082031 144.769531 293.140625 145.832031 293.125 L 146.011719 293.125 L 205.609375 292.78125 L 265.234375 293.125 C 266.308594 293.148438 267.382812 293.101562 268.449219 292.976562 C 269.519531 292.855469 270.574219 292.660156 271.613281 292.394531 C 272.65625 292.128906 273.675781 291.792969 274.671875 291.390625 C 275.667969 290.988281 276.632812 290.515625 277.566406 289.980469 C 278.496094 289.445312 279.390625 288.851562 280.242188 288.195312 C 281.09375 287.539062 281.898438 286.828125 282.652344 286.0625 C 283.40625 285.296875 284.105469 284.484375 284.75 283.621094 C 285.394531 282.761719 285.980469 281.863281 286.5 280.921875 C 291.03125 273.136719 290.96875 264.1875 286.417969 256.367188 Z M 209.421875 273.738281 L 205.609375 273.707031 L 200.179688 273.738281 C 199.558594 273.554688 198.953125 273.335938 198.359375 273.082031 C 197.765625 272.824219 197.191406 272.535156 196.632812 272.210938 C 196.074219 271.886719 195.539062 271.53125 195.023438 271.144531 C 194.507812 270.757812 194.015625 270.339844 193.546875 269.890625 C 193.082031 269.445312 192.644531 268.972656 192.234375 268.476562 C 191.824219 267.976562 191.445312 267.453125 191.097656 266.910156 C 190.75 266.367188 190.433594 265.804688 190.152344 265.222656 C 189.871094 264.644531 189.625 264.046875 189.417969 263.4375 C 189.207031 262.828125 189.03125 262.207031 188.898438 261.574219 C 188.761719 260.945312 188.660156 260.304688 188.601562 259.664062 C 188.542969 259.019531 188.519531 258.378906 188.535156 257.730469 C 188.550781 257.085938 188.605469 256.445312 188.699219 255.804688 C 188.792969 255.167969 188.921875 254.535156 189.089844 253.910156 C 189.257812 253.289062 189.460938 252.675781 189.703125 252.078125 C 189.941406 251.480469 190.21875 250.898438 190.527344 250.332031 C 190.835938 249.765625 191.179688 249.21875 191.554688 248.691406 C 191.929688 248.167969 192.335938 247.664062 192.769531 247.1875 C 193.203125 246.710938 193.664062 246.261719 194.152344 245.839844 C 194.640625 245.414062 195.152344 245.023438 195.6875 244.664062 C 196.222656 244.300781 196.777344 243.972656 197.351562 243.675781 C 197.925781 243.378906 198.511719 243.121094 199.117188 242.894531 C 199.722656 242.667969 200.339844 242.480469 200.96875 242.328125 C 201.59375 242.175781 202.230469 242.0625 202.871094 241.984375 C 203.511719 241.910156 204.152344 241.871094 204.800781 241.871094 C 205.445312 241.871094 206.089844 241.910156 206.730469 241.984375 C 207.371094 242.0625 208.003906 242.175781 208.632812 242.328125 C 209.257812 242.480469 209.875 242.667969 210.480469 242.894531 C 211.085938 243.121094 211.675781 243.378906 212.25 243.675781 C 212.824219 243.972656 213.378906 244.300781 213.910156 244.664062 C 214.445312 245.023438 214.957031 245.414062 215.445312 245.839844 C 215.933594 246.261719 216.394531 246.710938 216.832031 247.1875 C 217.265625 247.664062 217.667969 248.167969 218.042969 248.691406 C 218.417969 249.21875 218.761719 249.765625 219.070312 250.332031 C 219.382812 250.898438 219.65625 251.480469 219.898438 252.078125 C 220.136719 252.675781 220.34375 253.289062 220.511719 253.910156 C 220.675781 254.535156 220.808594 255.167969 220.902344 255.804688 C 220.992188 256.445312 221.046875 257.085938 221.0625 257.730469 C 221.082031 258.378906 221.058594 259.019531 220.996094 259.664062 C 220.9375 260.304688 220.839844 260.945312 220.703125 261.574219 C 220.566406 262.207031 220.394531 262.828125 220.183594 263.4375 C 219.972656 264.046875 219.726562 264.644531 219.445312 265.222656 C 219.164062 265.804688 218.851562 266.367188 218.503906 266.910156 C 218.152344 267.453125 217.773438 267.976562 217.363281 268.476562 C 216.953125 268.972656 216.515625 269.445312 216.050781 269.890625 C 215.585938 270.339844 215.09375 270.757812 214.578125 271.144531 C 214.0625 271.53125 213.523438 271.886719 212.964844 272.210938 C 212.40625 272.535156 211.832031 272.824219 211.238281 273.082031 C 210.644531 273.335938 210.039062 273.554688 209.421875 273.738281 Z M 224.4375 179.855469 L 223.703125 186.152344 L 218.519531 230.796875 C 218.453125 231.378906 218.285156 231.929688 218.015625 232.449219 C 217.75 232.96875 217.398438 233.425781 216.960938 233.816406 C 216.523438 234.207031 216.035156 234.503906 215.488281 234.714844 C 214.941406 234.925781 214.375 235.03125 213.789062 235.035156 L 197.476562 235.035156 C 196.890625 235.035156 196.324219 234.929688 195.773438 234.71875 C 195.226562 234.511719 194.730469 234.210938 194.292969 233.820312 C 193.851562 233.429688 193.5 232.972656 193.226562 232.453125 C 192.957031 231.933594 192.785156 231.378906 192.71875 230.796875 L 187.546875 186.167969 L 186.8125 179.851562 C 186.734375 179.179688 186.796875 178.515625 187 177.871094 C 187.207031 177.222656 187.535156 176.644531 187.988281 176.140625 C 188.441406 175.628906 188.980469 175.238281 189.601562 174.957031 C 190.222656 174.679688 190.875 174.539062 191.554688 174.535156 L 219.695312 174.535156 C 220.375 174.535156 221.023438 174.675781 221.640625 174.957031 C 222.261719 175.234375 222.796875 175.628906 223.242188 176.140625 C 223.695312 176.644531 224.027344 177.222656 224.234375 177.871094 C 224.441406 178.515625 224.511719 179.179688 224.4375 179.855469 Z M 224.4375 179.855469 " fill-opacity="1" fill-rule="nonzero"/></g><path fill="#22d3ee" d="M 247.027344 65.242188 C 243.15625 63.273438 239.230469 61.421875 235.253906 59.683594 C 231.273438 57.945312 227.246094 56.324219 223.171875 54.824219 C 219.097656 53.324219 214.980469 51.945312 210.824219 50.683594 C 206.667969 49.425781 202.480469 48.292969 198.257812 47.277344 C 194.03125 46.265625 189.785156 45.378906 185.507812 44.617188 C 181.234375 43.855469 176.941406 43.21875 172.628906 42.710938 C 168.316406 42.199219 163.992188 41.816406 159.65625 41.5625 C 155.320312 41.304688 150.984375 41.179688 146.640625 41.179688 C 142.296875 41.179688 137.957031 41.304688 133.625 41.5625 C 129.289062 41.816406 124.964844 42.199219 120.652344 42.710938 C 116.339844 43.21875 112.046875 43.855469 107.769531 44.617188 C 103.496094 45.378906 99.246094 46.265625 95.023438 47.277344 C 90.800781 48.292969 86.613281 49.425781 82.457031 50.683594 C 78.300781 51.945312 74.183594 53.324219 70.109375 54.824219 C 66.035156 56.324219 62.007812 57.945312 58.027344 59.683594 C 54.046875 61.421875 50.125 63.273438 46.253906 65.242188 C 45.710938 65.488281 45.292969 65.867188 44.996094 66.382812 C 44.695312 66.894531 44.574219 67.449219 44.628906 68.039062 C 47.902344 131.59375 79.117188 191.289062 128.914062 230.4375 L 146.644531 200.140625 L 176.105469 148.414062 C 176.835938 147.109375 177.652344 145.863281 178.550781 144.667969 C 179.449219 143.472656 180.421875 142.347656 181.472656 141.28125 C 182.519531 140.21875 183.632812 139.226562 184.816406 138.3125 C 185.996094 137.398438 187.230469 136.566406 188.523438 135.816406 C 189.816406 135.0625 191.152344 134.402344 192.53125 133.832031 C 193.910156 133.257812 195.324219 132.78125 196.765625 132.394531 C 198.210938 132.011719 199.671875 131.726562 201.15625 131.535156 C 202.636719 131.347656 204.125 131.257812 205.617188 131.269531 C 215.925781 131.269531 225.019531 135.488281 231.398438 143.046875 C 236.46875 131.15625 240.453125 118.914062 243.351562 106.316406 C 246.246094 93.71875 248.015625 80.96875 248.648438 68.058594 C 248.679688 67.765625 248.664062 67.480469 248.605469 67.195312 C 248.542969 66.910156 248.441406 66.640625 248.292969 66.386719 C 248.148438 66.136719 247.96875 65.910156 247.75 65.714844 C 247.535156 65.519531 247.292969 65.363281 247.027344 65.242188 Z M 165.464844 156.902344 C 165.535156 157.578125 165.46875 158.238281 165.257812 158.886719 C 165.050781 159.53125 164.722656 160.109375 164.269531 160.617188 C 163.820312 161.125 163.285156 161.519531 162.667969 161.800781 C 162.046875 162.082031 161.398438 162.21875 160.71875 162.21875 L 132.566406 162.21875 C 131.886719 162.214844 131.238281 162.074219 130.621094 161.796875 C 130 161.515625 129.464844 161.125 129.015625 160.617188 C 128.558594 160.113281 128.226562 159.539062 128.023438 158.886719 C 127.820312 158.238281 127.765625 157.578125 127.855469 156.902344 L 131.847656 122.433594 C 131.039062 121.90625 130.265625 121.339844 129.519531 120.726562 C 128.773438 120.117188 128.058594 119.46875 127.382812 118.78125 C 126.707031 118.09375 126.066406 117.375 125.46875 116.621094 C 124.867188 115.867188 124.3125 115.082031 123.792969 114.265625 C 123.277344 113.453125 122.808594 112.613281 122.382812 111.746094 C 121.953125 110.882812 121.574219 110 121.246094 109.09375 C 120.914062 108.1875 120.628906 107.265625 120.398438 106.332031 C 120.164062 105.398438 119.980469 104.453125 119.847656 103.496094 C 119.714844 102.542969 119.636719 101.582031 119.605469 100.617188 C 119.574219 99.65625 119.597656 98.691406 119.671875 97.730469 C 119.742188 96.769531 119.867188 95.816406 120.042969 94.867188 C 120.21875 93.917969 120.441406 92.984375 120.71875 92.058594 C 120.992188 91.136719 121.316406 90.226562 121.6875 89.339844 C 122.0625 88.449219 122.480469 87.582031 122.945312 86.738281 C 123.410156 85.894531 123.917969 85.074219 124.46875 84.285156 C 125.023438 83.496094 125.613281 82.738281 126.246094 82.007812 C 126.878906 81.28125 127.550781 80.589844 128.257812 79.9375 C 128.964844 79.28125 129.703125 78.664062 130.476562 78.089844 C 131.25 77.511719 132.050781 76.980469 132.882812 76.488281 C 133.710938 75.996094 134.566406 75.550781 135.441406 75.152344 C 136.320312 74.753906 137.21875 74.402344 138.132812 74.097656 C 139.046875 73.796875 139.976562 73.542969 140.917969 73.335938 C 141.859375 73.132812 142.808594 72.980469 143.769531 72.875 C 144.726562 72.773438 145.6875 72.722656 146.652344 72.722656 C 147.617188 72.722656 148.578125 72.773438 149.535156 72.875 C 150.496094 72.980469 151.445312 73.132812 152.386719 73.335938 C 153.332031 73.542969 154.257812 73.796875 155.175781 74.097656 C 156.089844 74.402344 156.984375 74.753906 157.863281 75.152344 C 158.742188 75.550781 159.59375 75.996094 160.425781 76.488281 C 161.253906 76.980469 162.054688 77.511719 162.828125 78.089844 C 163.601562 78.664062 164.339844 79.28125 165.046875 79.9375 C 165.753906 80.589844 166.425781 81.28125 167.058594 82.007812 C 167.691406 82.738281 168.285156 83.496094 168.835938 84.285156 C 169.386719 85.074219 169.898438 85.894531 170.363281 86.738281 C 170.828125 87.582031 171.246094 88.449219 171.617188 89.339844 C 171.988281 90.226562 172.3125 91.136719 172.589844 92.058594 C 172.863281 92.984375 173.089844 93.917969 173.261719 94.867188 C 173.4375 95.816406 173.5625 96.769531 173.636719 97.730469 C 173.707031 98.691406 173.730469 99.65625 173.699219 100.617188 C 173.671875 101.582031 173.589844 102.542969 173.457031 103.496094 C 173.324219 104.453125 173.140625 105.398438 172.910156 106.332031 C 172.675781 107.265625 172.394531 108.1875 172.0625 109.09375 C 171.730469 110 171.351562 110.882812 170.925781 111.746094 C 170.5 112.613281 170.027344 113.453125 169.511719 114.265625 C 168.996094 115.082031 168.4375 115.867188 167.835938 116.621094 C 167.238281 117.375 166.597656 118.09375 165.921875 118.78125 C 165.246094 119.46875 164.535156 120.117188 163.789062 120.726562 C 163.042969 121.339844 162.265625 121.90625 161.457031 122.433594 Z M 165.464844 156.902344 " fill-opacity="1" fill-rule="nonzero"/><path fill="#ffffff" d="M 146.664062 82.273438 C 145.679688 82.273438 144.703125 82.355469 143.730469 82.515625 C 142.761719 82.679688 141.8125 82.925781 140.882812 83.25 C 139.953125 83.574219 139.054688 83.972656 138.191406 84.449219 C 137.332031 84.925781 136.515625 85.46875 135.742188 86.082031 C 134.972656 86.695312 134.257812 87.367188 133.601562 88.101562 C 132.945312 88.835938 132.351562 89.617188 131.828125 90.453125 C 131.304688 91.285156 130.851562 92.15625 130.472656 93.066406 C 130.09375 93.972656 129.796875 94.90625 129.574219 95.867188 C 129.355469 96.828125 129.214844 97.800781 129.160156 98.78125 C 129.101562 99.765625 129.128906 100.746094 129.234375 101.726562 C 129.34375 102.703125 129.535156 103.667969 129.804688 104.613281 C 130.074219 105.558594 130.421875 106.476562 130.847656 107.363281 C 131.273438 108.253906 131.769531 109.097656 132.339844 109.902344 C 132.90625 110.707031 133.539062 111.460938 134.234375 112.15625 C 134.929688 112.855469 135.675781 113.488281 136.476562 114.0625 C 137.28125 114.632812 138.125 115.132812 139.011719 115.5625 C 139.457031 115.777344 139.859375 116.058594 140.21875 116.398438 C 140.578125 116.738281 140.875 117.125 141.113281 117.558594 C 141.351562 117.992188 141.519531 118.453125 141.617188 118.9375 C 141.710938 119.425781 141.730469 119.914062 141.675781 120.40625 L 137.914062 152.679688 L 155.367188 152.679688 L 151.605469 120.40625 C 151.550781 119.914062 151.574219 119.425781 151.671875 118.9375 C 151.769531 118.453125 151.941406 117.992188 152.179688 117.558594 C 152.421875 117.125 152.71875 116.738281 153.078125 116.398438 C 153.4375 116.058594 153.84375 115.78125 154.289062 115.5625 C 155.171875 115.132812 156.015625 114.632812 156.816406 114.0625 C 157.621094 113.492188 158.367188 112.855469 159.0625 112.160156 C 159.757812 111.460938 160.386719 110.710938 160.953125 109.910156 C 161.523438 109.105469 162.019531 108.261719 162.445312 107.371094 C 162.871094 106.484375 163.21875 105.570312 163.492188 104.621094 C 163.761719 103.675781 163.953125 102.714844 164.0625 101.738281 C 164.167969 100.757812 164.195312 99.777344 164.140625 98.796875 C 164.085938 97.8125 163.945312 96.84375 163.726562 95.882812 C 163.507812 94.925781 163.207031 93.992188 162.832031 93.082031 C 162.453125 92.171875 162.003906 91.300781 161.480469 90.46875 C 160.957031 89.636719 160.367188 88.851562 159.710938 88.117188 C 159.054688 87.386719 158.34375 86.710938 157.574219 86.097656 C 156.804688 85.484375 155.988281 84.9375 155.128906 84.460938 C 154.269531 83.988281 153.375 83.585938 152.445312 83.261719 C 151.515625 82.933594 150.566406 82.6875 149.597656 82.523438 C 148.625 82.355469 147.648438 82.273438 146.664062 82.273438 Z M 146.664062 82.273438 " fill-opacity="1" fill-rule="nonzero"/><g clip-path="url(#6bf4369caa)"><path fill="#22d3ee" d="M 124.058594 238.746094 C 111.921875 229.3125 100.832031 218.78125 90.789062 207.144531 C 80.746094 195.507812 71.941406 182.996094 64.382812 169.613281 C 60.050781 161.890625 56.175781 153.945312 52.753906 145.777344 C 49.335938 137.609375 46.394531 129.269531 43.929688 120.765625 C 41.46875 112.261719 39.5 103.640625 38.023438 94.910156 C 36.550781 86.179688 35.582031 77.390625 35.113281 68.546875 C 35.042969 67.339844 35.144531 66.148438 35.417969 64.96875 C 35.695312 63.792969 36.136719 62.679688 36.738281 61.632812 C 37.34375 60.582031 38.085938 59.644531 38.964844 58.8125 C 39.84375 57.984375 40.824219 57.296875 41.902344 56.753906 C 45.941406 54.699219 50.039062 52.765625 54.1875 50.949219 C 58.339844 49.136719 62.542969 47.449219 66.792969 45.882812 C 71.046875 44.316406 75.339844 42.875 79.675781 41.5625 C 84.011719 40.25 88.382812 39.0625 92.789062 38.007812 C 97.195312 36.949219 101.628906 36.023438 106.089844 35.230469 C 110.550781 34.433594 115.027344 33.769531 119.527344 33.238281 C 124.027344 32.707031 128.539062 32.308594 133.0625 32.039062 C 137.585938 31.773438 142.113281 31.640625 146.644531 31.640625 C 151.171875 31.640625 155.699219 31.773438 160.222656 32.039062 C 164.746094 32.308594 169.257812 32.707031 173.757812 33.238281 C 178.257812 33.769531 182.738281 34.433594 187.195312 35.230469 C 191.65625 36.023438 196.089844 36.949219 200.496094 38.007812 C 204.902344 39.0625 209.273438 40.25 213.609375 41.5625 C 217.945312 42.875 222.238281 44.316406 226.492188 45.882812 C 230.742188 47.449219 234.945312 49.136719 239.097656 50.949219 C 243.25 52.765625 247.34375 54.699219 251.382812 56.753906 C 252.46875 57.292969 253.453125 57.976562 254.335938 58.808594 C 255.21875 59.636719 255.960938 60.578125 256.566406 61.628906 C 257.167969 62.679688 257.609375 63.796875 257.882812 64.976562 C 258.15625 66.160156 258.25 67.355469 258.171875 68.5625 C 257.453125 83.109375 255.359375 97.457031 251.894531 111.601562 C 248.425781 125.746094 243.648438 139.4375 237.558594 152.664062 L 252.28125 178.511719 C 257.347656 169.199219 261.816406 159.605469 265.6875 149.734375 C 269.558594 139.859375 272.796875 129.785156 275.410156 119.507812 C 278.019531 109.230469 279.980469 98.832031 281.292969 88.308594 C 282.605469 77.789062 283.257812 67.226562 283.25 56.621094 L 283.25 47.953125 C 283.265625 47.417969 283.140625 46.917969 282.871094 46.453125 C 282.601562 45.992188 282.234375 45.632812 281.761719 45.382812 L 274.269531 41.046875 C 269.445312 38.265625 264.535156 35.640625 259.539062 33.179688 C 254.542969 30.714844 249.46875 28.417969 244.324219 26.289062 C 239.179688 24.15625 233.96875 22.199219 228.691406 20.40625 C 223.417969 18.617188 218.089844 17.003906 212.710938 15.5625 C 207.332031 14.121094 201.910156 12.859375 196.445312 11.773438 C 190.984375 10.6875 185.492188 9.78125 179.96875 9.054688 C 174.445312 8.328125 168.90625 7.78125 163.347656 7.417969 C 157.789062 7.054688 152.226562 6.871094 146.65625 6.871094 C 141.085938 6.871094 135.523438 7.054688 129.964844 7.417969 C 124.40625 7.785156 118.867188 8.328125 113.34375 9.058594 C 107.824219 9.785156 102.332031 10.691406 96.867188 11.777344 C 91.40625 12.863281 85.984375 14.128906 80.605469 15.570312 C 75.222656 17.011719 69.894531 18.625 64.621094 20.417969 C 59.347656 22.207031 54.136719 24.167969 48.992188 26.300781 C 43.84375 28.429688 38.773438 30.726562 33.777344 33.191406 C 28.785156 35.652344 23.875 38.277344 19.050781 41.0625 L 11.558594 45.378906 C 11.082031 45.628906 10.710938 45.984375 10.441406 46.449219 C 10.171875 46.914062 10.050781 47.414062 10.070312 47.949219 L 10.070312 56.621094 C 10.070312 138.1875 48.039062 213.179688 112.691406 261.222656 C 113.488281 257.800781 114.78125 254.578125 116.566406 251.554688 L 123.523438 239.648438 Z M 124.058594 238.746094 " fill-opacity="1" fill-rule="nonzero"/></g><path fill="#22d3ee" d="M 201.714844 225.496094 L 209.535156 225.496094 L 214.34375 184.074219 L 196.90625 184.074219 Z M 201.714844 225.496094 " fill-opacity="1" fill-rule="nonzero"/><path fill="#22d3ee" d="M 204.789062 251.34375 C 204.347656 251.34375 203.90625 251.382812 203.46875 251.46875 C 203.035156 251.554688 202.609375 251.679688 202.199219 251.851562 C 201.789062 252.019531 201.398438 252.226562 201.027344 252.472656 C 200.65625 252.71875 200.3125 252.996094 200 253.308594 C 199.683594 253.621094 199.402344 253.964844 199.152344 254.332031 C 198.90625 254.699219 198.695312 255.089844 198.523438 255.5 C 198.351562 255.910156 198.222656 256.332031 198.136719 256.769531 C 198.046875 257.203125 198.003906 257.644531 198 258.089844 C 198 258.535156 198.042969 258.972656 198.128906 259.410156 C 198.214844 259.847656 198.339844 260.269531 198.511719 260.679688 C 198.679688 261.089844 198.886719 261.480469 199.132812 261.851562 C 199.378906 262.222656 199.65625 262.566406 199.972656 262.878906 C 200.285156 263.195312 200.625 263.476562 200.996094 263.722656 C 201.363281 263.972656 201.753906 264.179688 202.164062 264.351562 C 202.574219 264.523438 202.996094 264.652344 203.433594 264.738281 C 203.867188 264.828125 204.308594 264.871094 204.753906 264.871094 C 205.195312 264.875 205.636719 264.832031 206.074219 264.746094 C 206.507812 264.660156 206.933594 264.53125 207.34375 264.363281 C 207.753906 264.191406 208.144531 263.984375 208.515625 263.738281 C 208.886719 263.492188 209.226562 263.210938 209.542969 262.898438 C 209.855469 262.585938 210.136719 262.242188 210.386719 261.875 C 210.632812 261.503906 210.839844 261.117188 211.011719 260.707031 C 211.183594 260.296875 211.3125 259.871094 211.398438 259.4375 C 211.488281 259 211.53125 258.5625 211.53125 258.117188 C 211.53125 257.671875 211.484375 257.234375 211.398438 256.800781 C 211.3125 256.367188 211.183594 255.945312 211.015625 255.535156 C 210.84375 255.125 210.636719 254.734375 210.390625 254.367188 C 210.144531 254 209.867188 253.65625 209.554688 253.34375 C 209.242188 253.027344 208.902344 252.746094 208.535156 252.5 C 208.167969 252.253906 207.777344 252.042969 207.371094 251.871094 C 206.960938 251.699219 206.539062 251.570312 206.105469 251.480469 C 205.671875 251.390625 205.234375 251.347656 204.789062 251.34375 Z M 204.789062 251.34375 " fill-opacity="1" fill-rule="nonzero"/></svg>