<svg xmlns="http://www.w3.org/2000/svg" xmlns:xlink="http://www.w3.org/1999/xlink" width="400" zoomAndPan="magnify" viewBox="0 0 300 299.999988" height="400" preserveAspectRatio="xMidYMid meet" version="1.0"><defs><clipPath id="954cd33a9d"><path d="M 17.449219 25.902344 L 282.199219 25.902344 L 282.199219 274.152344 L 17.449219 274.152344 Z M 17.449219 25.902344 " clip-rule="nonzero"/></clipPath></defs><g clip-path="url(#954cd33a9d)"><path fill="#22d3ee" d="M 213.113281 137.910156 L 223.9375 148.734375 C 225.332031 148.0625 226.890625 147.667969 228.523438 147.667969 C 234.339844 147.667969 239.085938 152.410156 239.085938 158.234375 C 239.085938 164.0625 234.332031 168.796875 228.523438 168.796875 C 222.703125 168.796875 217.957031 164.0625 217.957031 158.234375 C 217.957031 156.589844 218.359375 155.03125 219.023438 153.644531 L 209.210938 143.839844 L 181.226562 143.839844 L 181.226562 144.632812 C 181.226562 150.695312 176.3125 155.628906 170.238281 155.628906 L 169.453125 155.628906 L 169.453125 164.089844 C 169.453125 166.007812 167.890625 167.5625 165.980469 167.5625 C 164.042969 167.5625 162.507812 166.007812 162.507812 164.089844 L 162.507812 155.628906 L 150.78125 155.628906 L 150.78125 164.089844 C 150.78125 166.007812 149.21875 167.5625 147.308594 167.5625 C 145.394531 167.5625 143.835938 166.007812 143.835938 164.089844 L 143.835938 155.628906 L 132.109375 155.628906 L 132.109375 180.742188 C 132.109375 182.316406 131.046875 183.6875 129.535156 184.09375 L 120.574219 186.496094 C 120.175781 191.960938 115.609375 196.28125 110.035156 196.28125 C 104.21875 196.28125 99.496094 191.542969 99.496094 185.71875 C 99.496094 179.898438 104.222656 175.15625 110.035156 175.15625 C 113.675781 175.15625 116.867188 176.996094 118.78125 179.789062 L 125.164062 178.074219 L 125.164062 155.621094 L 124.382812 155.621094 C 118.304688 155.621094 113.371094 150.691406 113.371094 144.625 L 113.371094 143.832031 L 104.90625 143.832031 C 102.992188 143.832031 101.433594 142.277344 101.433594 140.359375 C 101.433594 138.4375 102.996094 136.886719 104.90625 136.886719 L 113.371094 136.886719 L 113.371094 125.167969 L 68.742188 125.167969 C 67.824219 125.167969 66.925781 124.800781 66.285156 124.148438 L 57.492188 115.351562 C 56.097656 116.019531 54.539062 116.414062 52.886719 116.414062 C 47.066406 116.414062 42.34375 111.675781 42.34375 105.851562 C 42.34375 100.027344 47.074219 95.289062 52.886719 95.289062 C 58.726562 95.289062 63.449219 100.027344 63.449219 105.851562 C 63.449219 107.5 63.070312 109.050781 62.382812 110.441406 L 70.183594 118.21875 L 113.371094 118.21875 L 113.371094 106.5 L 104.90625 106.5 C 102.992188 106.5 101.433594 104.941406 101.433594 103.027344 C 101.433594 101.105469 102.996094 99.554688 104.90625 99.554688 L 113.371094 99.554688 L 113.371094 98.753906 C 113.371094 92.691406 118.3125 87.757812 124.382812 87.757812 L 125.164062 87.757812 L 125.164062 79.296875 C 125.164062 77.375 126.726562 75.824219 128.636719 75.824219 C 130.554688 75.824219 132.109375 77.378906 132.109375 79.296875 L 132.109375 87.757812 L 143.835938 87.757812 L 143.835938 63.5 L 126.371094 56.382812 C 124.429688 58.574219 121.59375 59.96875 118.453125 59.96875 C 112.632812 59.96875 107.886719 55.234375 107.886719 49.40625 C 107.886719 43.585938 112.640625 38.84375 118.453125 38.84375 C 124.269531 38.84375 129.015625 43.585938 129.015625 49.40625 C 129.015625 49.585938 128.992188 49.765625 128.992188 49.953125 L 148.613281 57.949219 C 149.9375 58.484375 150.789062 59.757812 150.789062 61.167969 L 150.789062 87.757812 L 162.515625 87.757812 L 162.515625 79.296875 C 162.515625 77.375 164.050781 75.824219 165.988281 75.824219 C 167.902344 75.824219 169.460938 77.378906 169.460938 79.296875 L 169.460938 87.757812 L 170.242188 87.757812 C 176.320312 87.757812 181.234375 92.691406 181.234375 98.753906 L 181.234375 99.554688 L 204.65625 99.554688 L 208.230469 79.175781 C 205.015625 77.367188 202.816406 73.914062 202.816406 69.953125 C 202.816406 64.132812 207.570312 59.390625 213.378906 59.390625 C 219.195312 59.390625 223.941406 64.132812 223.941406 69.953125 C 223.941406 75.199219 220.089844 79.550781 215.082031 80.367188 L 210.988281 103.625 C 210.707031 105.285156 209.265625 106.492188 207.5625 106.492188 L 181.234375 106.492188 L 181.234375 118.214844 L 189.71875 118.214844 C 191.632812 118.214844 193.191406 119.773438 193.191406 121.6875 C 193.191406 123.609375 191.628906 125.160156 189.71875 125.160156 L 181.234375 125.160156 L 181.234375 136.882812 L 210.660156 136.882812 C 211.574219 136.894531 212.472656 137.257812 213.113281 137.910156 Z M 88.167969 175.792969 C 88.167969 194.917969 105.988281 212.339844 125.589844 212.339844 C 135.660156 212.339844 144.972656 207.632812 151.066406 199.425781 C 152.109375 198.019531 154.019531 197.613281 155.558594 198.472656 C 162.203125 202.210938 169.976562 204.183594 178.015625 204.183594 C 185.273438 204.183594 192.363281 202.5625 198.558594 199.496094 C 200.28125 198.644531 202.367188 199.351562 203.214844 201.070312 C 204.066406 202.789062 203.355469 204.871094 201.628906 205.722656 C 195.4375 208.796875 188.460938 210.613281 181.304688 211.035156 C 182.507812 228.96875 193.734375 232.925781 207.730469 237.859375 C 222.011719 242.894531 238.199219 248.601562 242.167969 271.792969 C 242.40625 273.140625 243.519531 274.078125 244.890625 274.078125 L 257.277344 274.078125 C 258.765625 274.078125 259.996094 272.882812 260.042969 271.40625 C 260.066406 270.507812 260.066406 269.601562 260.066406 268.695312 C 260.066406 248 253 228.835938 242.3125 220.105469 C 238.25 221.832031 233.945312 223.152344 229.503906 224.019531 C 229.269531 224.066406 229.03125 224.082031 228.824219 224.082031 C 227.191406 224.082031 225.75 222.9375 225.417969 221.277344 C 225.066406 219.394531 226.269531 217.570312 228.164062 217.199219 C 246.574219 213.59375 261.75 201.300781 268.558594 185.328125 C 262.339844 189.125 255.203125 191.15625 247.683594 191.15625 C 245.769531 191.15625 244.210938 189.597656 244.210938 187.683594 C 244.210938 185.765625 245.777344 184.210938 247.683594 184.210938 C 269.476562 184.210938 282.507812 165.121094 282.507812 146.667969 C 282.507812 141.136719 280.941406 135.828125 277.945312 131.140625 C 275.015625 134.195312 271.328125 136.585938 267.097656 138.003906 C 266.746094 138.125 266.363281 138.183594 265.988281 138.183594 C 264.546875 138.183594 263.199219 137.269531 262.699219 135.816406 C 262.085938 134 263.074219 132.03125 264.898438 131.417969 C 273.078125 128.664062 278.585938 121 278.585938 112.347656 C 278.585938 101.257812 269.582031 92.234375 258.472656 92.234375 C 253.53125 92.234375 248.808594 94.039062 245.121094 97.308594 C 243.679688 98.582031 241.480469 98.453125 240.230469 97.019531 C 238.953125 95.582031 239.074219 93.390625 240.515625 92.117188 C 244.554688 88.511719 249.589844 86.230469 254.910156 85.523438 C 254.082031 75.425781 247.605469 63.953125 237.488281 54.871094 C 225.835938 44.421875 211.203125 39.1875 200.65625 41.386719 C 200.917969 42.890625 201.085938 44.433594 201.085938 46.015625 C 201.085938 47.238281 200.992188 48.464844 200.824219 49.667969 C 200.589844 51.410156 199.101562 52.671875 197.398438 52.671875 C 197.230469 52.671875 197.09375 52.660156 196.925781 52.644531 C 195.007812 52.386719 193.6875 50.632812 193.945312 48.734375 C 194.058594 47.839844 194.136719 46.925781 194.136719 46.015625 C 194.136719 34.917969 185.105469 25.902344 174.023438 25.902344 C 163.597656 25.902344 154.804688 34.023438 153.953125 44.382812 C 153.816406 46.292969 152.136719 47.710938 150.222656 47.566406 C 148.304688 47.410156 146.886719 45.738281 147.03125 43.828125 C 147.292969 40.683594 148.097656 37.691406 149.347656 34.949219 C 142.800781 29.3125 133.695312 26.109375 124.03125 26.109375 C 105.734375 26.109375 87.539062 40.742188 84.296875 58.066406 C 83.964844 59.738281 82.523438 60.902344 80.871094 60.902344 C 80.679688 60.902344 80.441406 60.878906 80.234375 60.839844 C 78.339844 60.484375 77.113281 58.671875 77.464844 56.785156 C 78.125 53.25 79.3125 49.785156 80.9375 46.457031 C 78.457031 45.726562 75.902344 45.34375 73.257812 45.34375 C 58.511719 45.34375 46.523438 57.109375 46.523438 71.570312 C 46.898438 71.558594 47.304688 71.539062 47.679688 71.539062 C 56.757812 71.539062 65.316406 75.910156 70.5625 83.226562 C 71.695312 84.785156 71.34375 86.953125 69.78125 88.070312 C 68.21875 89.1875 66.046875 88.828125 64.933594 87.273438 C 60.988281 81.769531 54.535156 78.484375 47.679688 78.484375 C 36.078125 78.484375 26.617188 87.746094 26.617188 99.136719 C 26.617188 106.269531 30.304688 112.796875 36.453125 116.613281 C 38.109375 117.617188 38.605469 119.761719 37.585938 121.390625 C 36.925781 122.453125 35.792969 123.035156 34.636719 123.035156 C 34.023438 123.035156 33.386719 122.867188 32.816406 122.515625 C 29.199219 120.28125 26.25 117.347656 24.050781 113.949219 C 19.703125 121.4375 17.433594 129.867188 17.433594 138.636719 C 17.433594 166.15625 40.152344 188.542969 68.066406 188.542969 C 73.078125 188.542969 77.992188 187.820312 82.746094 186.410156 C 81.75 182.929688 81.257812 179.359375 81.257812 175.789062 C 81.257812 174.855469 81.28125 173.929688 81.351562 173.003906 C 80.804688 173.042969 80.261719 173.066406 79.71875 173.066406 C 67.355469 173.066406 57.3125 163.152344 57.3125 150.96875 C 57.3125 149.367188 57.480469 147.761719 57.832031 146.210938 C 58.234375 144.339844 60.101562 143.160156 61.972656 143.578125 C 63.839844 143.996094 65.023438 145.847656 64.617188 147.722656 C 64.355469 148.78125 64.265625 149.875 64.265625 150.976562 C 64.265625 159.332031 71.191406 166.132812 79.722656 166.132812 C 80.621094 166.132812 81.519531 166.046875 82.421875 165.894531 C 83.011719 163.40625 83.816406 160.980469 84.859375 158.632812 C 85.640625 156.878906 87.695312 156.089844 89.441406 156.871094 C 91.191406 157.652344 91.996094 159.703125 91.214844 161.457031 C 89.160156 165.9375 88.167969 170.757812 88.167969 175.792969 Z M 88.167969 175.792969 " fill-opacity="1" fill-rule="evenodd"/></g><path fill="#ffffff" d="M 228.523438 154.617188 C 226.535156 154.617188 224.902344 156.234375 224.902344 158.234375 C 224.902344 160.230469 226.535156 161.851562 228.523438 161.851562 C 230.53125 161.851562 232.140625 160.222656 232.140625 158.234375 C 232.140625 156.234375 230.535156 154.617188 228.523438 154.617188 Z M 228.523438 154.617188 " fill-opacity="1" fill-rule="evenodd"/><path fill="#ffffff" d="M 113.671875 185.730469 C 113.671875 183.734375 112.039062 182.113281 110.03125 182.113281 C 108.042969 182.113281 106.414062 183.742188 106.414062 185.730469 C 106.414062 187.730469 108.042969 189.347656 110.03125 189.347656 C 112.039062 189.347656 113.671875 187.722656 113.671875 185.730469 Z M 113.671875 185.730469 " fill-opacity="1" fill-rule="evenodd"/><path fill="#ffffff" d="M 49.261719 105.859375 C 49.261719 107.855469 50.894531 109.476562 52.878906 109.476562 C 54.886719 109.476562 56.496094 107.847656 56.496094 105.859375 C 56.496094 103.859375 54.886719 102.238281 52.878906 102.238281 C 50.886719 102.238281 49.261719 103.859375 49.261719 105.859375 Z M 49.261719 105.859375 " fill-opacity="1" fill-rule="evenodd"/><path fill="#ffffff" d="M 114.828125 49.417969 C 114.828125 51.410156 116.460938 53.035156 118.445312 53.035156 C 120.453125 53.035156 122.0625 51.410156 122.0625 49.417969 C 122.0625 47.421875 120.453125 45.800781 118.445312 45.800781 C 116.460938 45.800781 114.828125 47.421875 114.828125 49.417969 Z M 114.828125 49.417969 " fill-opacity="1" fill-rule="evenodd"/><path fill="#ffffff" d="M 213.375 66.347656 C 211.390625 66.347656 209.757812 67.96875 209.757812 69.964844 C 209.757812 71.964844 211.390625 73.582031 213.375 73.582031 C 215.359375 73.582031 216.992188 71.957031 216.992188 69.964844 C 216.984375 67.96875 215.359375 66.347656 213.375 66.347656 Z M 213.375 66.347656 " fill-opacity="1" fill-rule="evenodd"/><path fill="#ffffff" d="M 133.882812 108.277344 L 160.734375 108.277344 L 160.734375 135.128906 L 133.882812 135.128906 Z M 133.882812 108.277344 " fill-opacity="1" fill-rule="evenodd"/><path fill="#ffffff" d="M 130.402344 101.332031 L 164.207031 101.332031 C 166.121094 101.332031 167.679688 102.886719 167.679688 104.804688 L 167.679688 138.601562 C 167.679688 140.515625 166.117188 142.074219 164.207031 142.074219 L 130.402344 142.074219 C 128.488281 142.074219 126.929688 140.515625 126.929688 138.601562 L 126.929688 104.804688 C 126.929688 102.882812 128.492188 101.332031 130.402344 101.332031 Z M 174.277344 144.636719 L 174.277344 98.765625 C 174.277344 96.53125 172.480469 94.714844 170.238281 94.714844 L 124.378906 94.714844 C 122.132812 94.714844 120.316406 96.53125 120.316406 98.765625 L 120.316406 144.636719 C 120.316406 146.871094 122.132812 148.6875 124.378906 148.6875 L 170.238281 148.6875 C 172.480469 148.6875 174.277344 146.871094 174.277344 144.636719 Z M 174.277344 144.636719 " fill-opacity="1" fill-rule="evenodd"/></svg>