<svg xmlns="http://www.w3.org/2000/svg" xmlns:xlink="http://www.w3.org/1999/xlink" width="400" zoomAndPan="magnify" viewBox="0 0 300 299.999988" height="400" preserveAspectRatio="xMidYMid meet" version="1.0"><defs><clipPath id="e6d6b440cf"><path d="M 6.425781 10.195312 L 147 10.195312 L 147 289.945312 L 6.425781 289.945312 Z M 6.425781 10.195312 " clip-rule="nonzero"/></clipPath></defs><path fill="#22d3ee" d="M 164.257812 113.316406 C 162.679688 113.316406 161.402344 112.039062 161.402344 110.460938 C 161.402344 108.882812 162.679688 107.601562 164.257812 107.601562 L 188.050781 107.601562 C 189.726562 107.601562 191.25 106.917969 192.351562 105.816406 C 193.457031 104.710938 194.140625 103.191406 194.140625 101.515625 L 194.140625 52.882812 C 194.140625 49.628906 195.464844 46.675781 197.601562 44.539062 C 199.738281 42.402344 202.691406 41.078125 205.945312 41.078125 L 228.144531 41.078125 C 228.140625 41.292969 228.136719 41.507812 228.136719 41.726562 C 228.136719 43.449219 228.273438 45.140625 228.539062 46.792969 L 205.945312 46.792969 C 204.269531 46.792969 202.746094 47.476562 201.644531 48.582031 C 200.539062 49.683594 199.855469 51.207031 199.855469 52.882812 L 199.855469 101.515625 C 199.855469 104.765625 198.53125 107.71875 196.394531 109.855469 C 194.257812 111.992188 191.304688 113.316406 188.050781 113.316406 Z M 164.257812 113.316406 " fill-opacity="1" fill-rule="evenodd"/><path fill="#22d3ee" d="M 162.832031 149.433594 C 161.253906 149.433594 159.976562 148.152344 159.976562 146.574219 C 159.976562 144.996094 161.253906 143.714844 162.832031 143.714844 L 228.257812 143.714844 C 228.179688 144.636719 228.136719 145.566406 228.136719 146.503906 C 228.136719 147.492188 228.183594 148.46875 228.273438 149.433594 Z M 162.832031 149.433594 " fill-opacity="1" fill-rule="evenodd"/><path fill="#22d3ee" d="M 164.257812 189.347656 C 162.679688 189.347656 161.402344 188.066406 161.402344 186.488281 C 161.402344 184.910156 162.679688 183.632812 164.257812 183.632812 L 188.050781 183.632812 C 191.304688 183.632812 194.257812 184.957031 196.394531 187.09375 C 198.53125 189.230469 199.855469 192.183594 199.855469 195.4375 L 199.855469 244.070312 C 199.855469 245.746094 200.539062 247.265625 201.644531 248.371094 C 202.746094 249.472656 204.269531 250.15625 205.945312 250.15625 L 227.558594 250.15625 C 227.300781 251.789062 227.167969 253.460938 227.167969 255.164062 C 227.167969 255.398438 227.171875 255.636719 227.175781 255.875 L 205.945312 255.875 C 202.691406 255.875 199.738281 254.546875 197.601562 252.410156 C 195.464844 250.273438 194.140625 247.320312 194.140625 244.070312 L 194.140625 195.4375 C 194.140625 193.761719 193.457031 192.238281 192.351562 191.136719 C 191.25 190.03125 189.726562 189.347656 188.050781 189.347656 Z M 164.257812 189.347656 " fill-opacity="1" fill-rule="evenodd"/><path fill="#ffffff" d="M 286.484375 146.503906 C 286.484375 147.367188 286.441406 148.226562 286.359375 149.082031 C 286.273438 149.941406 286.148438 150.792969 285.980469 151.636719 C 285.8125 152.484375 285.601562 153.316406 285.351562 154.144531 C 285.101562 154.96875 284.8125 155.777344 284.480469 156.574219 C 284.152344 157.371094 283.785156 158.148438 283.378906 158.910156 C 282.972656 159.667969 282.527344 160.40625 282.050781 161.125 C 281.570312 161.839844 281.058594 162.53125 280.511719 163.199219 C 279.964844 163.863281 279.386719 164.503906 278.777344 165.113281 C 278.167969 165.722656 277.53125 166.300781 276.863281 166.847656 C 276.195312 167.394531 275.503906 167.90625 274.789062 168.386719 C 274.074219 168.863281 273.332031 169.304688 272.574219 169.710938 C 271.8125 170.117188 271.035156 170.488281 270.238281 170.816406 C 269.441406 171.148438 268.632812 171.4375 267.808594 171.6875 C 266.984375 171.9375 266.148438 172.144531 265.300781 172.316406 C 264.457031 172.484375 263.605469 172.609375 262.746094 172.695312 C 261.890625 172.777344 261.03125 172.820312 260.167969 172.820312 C 259.304688 172.820312 258.445312 172.777344 257.589844 172.695312 C 256.730469 172.609375 255.878906 172.484375 255.035156 172.316406 C 254.1875 172.144531 253.355469 171.9375 252.527344 171.6875 C 251.703125 171.4375 250.894531 171.148438 250.097656 170.816406 C 249.300781 170.488281 248.523438 170.117188 247.761719 169.710938 C 247.003906 169.304688 246.265625 168.863281 245.546875 168.386719 C 244.832031 167.90625 244.140625 167.394531 243.472656 166.847656 C 242.808594 166.300781 242.167969 165.722656 241.558594 165.113281 C 240.949219 164.503906 240.371094 163.863281 239.824219 163.199219 C 239.277344 162.53125 238.765625 161.839844 238.289062 161.125 C 237.808594 160.40625 237.367188 159.667969 236.960938 158.910156 C 236.554688 158.148438 236.183594 157.371094 235.855469 156.574219 C 235.527344 155.777344 235.234375 154.96875 234.984375 154.144531 C 234.734375 153.316406 234.527344 152.484375 234.359375 151.636719 C 234.191406 150.792969 234.0625 149.941406 233.980469 149.082031 C 233.894531 148.226562 233.851562 147.367188 233.851562 146.503906 C 233.851562 145.640625 233.894531 144.78125 233.980469 143.925781 C 234.0625 143.066406 234.191406 142.214844 234.359375 141.371094 C 234.527344 140.523438 234.734375 139.691406 234.984375 138.863281 C 235.234375 138.039062 235.527344 137.230469 235.855469 136.433594 C 236.183594 135.636719 236.554688 134.859375 236.960938 134.097656 C 237.367188 133.339844 237.808594 132.601562 238.289062 131.882812 C 238.765625 131.167969 239.277344 130.476562 239.824219 129.808594 C 240.371094 129.144531 240.949219 128.503906 241.558594 127.894531 C 242.167969 127.285156 242.808594 126.707031 243.472656 126.160156 C 244.140625 125.613281 244.832031 125.101562 245.546875 124.621094 C 246.265625 124.144531 247.003906 123.703125 247.761719 123.296875 C 248.523438 122.890625 249.300781 122.519531 250.097656 122.191406 C 250.894531 121.859375 251.703125 121.570312 252.527344 121.320312 C 253.355469 121.070312 254.1875 120.863281 255.035156 120.691406 C 255.878906 120.523438 256.730469 120.398438 257.589844 120.3125 C 258.445312 120.230469 259.304688 120.1875 260.167969 120.1875 C 261.03125 120.1875 261.890625 120.230469 262.746094 120.3125 C 263.605469 120.398438 264.457031 120.523438 265.300781 120.691406 C 266.148438 120.863281 266.984375 121.070312 267.808594 121.320312 C 268.632812 121.570312 269.441406 121.859375 270.238281 122.191406 C 271.035156 122.519531 271.8125 122.890625 272.574219 123.296875 C 273.332031 123.703125 274.074219 124.144531 274.789062 124.621094 C 275.503906 125.101562 276.195312 125.613281 276.863281 126.160156 C 277.53125 126.707031 278.167969 127.285156 278.777344 127.894531 C 279.386719 128.503906 279.964844 129.144531 280.511719 129.808594 C 281.058594 130.476562 281.570312 131.167969 282.050781 131.882812 C 282.527344 132.601562 282.972656 133.339844 283.378906 134.097656 C 283.785156 134.859375 284.152344 135.636719 284.480469 136.433594 C 284.8125 137.230469 285.101562 138.039062 285.351562 138.863281 C 285.601562 139.691406 285.8125 140.523438 285.980469 141.371094 C 286.148438 142.214844 286.273438 143.066406 286.359375 143.925781 C 286.441406 144.78125 286.484375 145.640625 286.484375 146.503906 Z M 286.484375 146.503906 " fill-opacity="1" fill-rule="nonzero"/><path fill="#ffffff" d="M 269.269531 230.847656 C 270.066406 231.179688 270.84375 231.546875 271.605469 231.953125 C 272.363281 232.359375 273.101562 232.800781 273.820312 233.28125 C 274.535156 233.761719 275.226562 234.273438 275.894531 234.820312 C 276.558594 235.367188 277.199219 235.945312 277.808594 236.554688 C 278.417969 237.164062 278.996094 237.800781 279.542969 238.46875 C 280.089844 239.132812 280.601562 239.824219 281.078125 240.542969 C 281.558594 241.257812 282 241.996094 282.40625 242.757812 C 282.8125 243.515625 283.183594 244.296875 283.511719 245.089844 C 283.839844 245.886719 284.132812 246.699219 284.382812 247.523438 C 284.632812 248.347656 284.839844 249.183594 285.007812 250.027344 C 285.175781 250.875 285.304688 251.726562 285.386719 252.582031 C 285.472656 253.441406 285.515625 254.300781 285.515625 255.164062 C 285.515625 256.023438 285.472656 256.882812 285.386719 257.742188 C 285.304688 258.597656 285.175781 259.449219 285.007812 260.296875 C 284.839844 261.140625 284.632812 261.976562 284.382812 262.800781 C 284.132812 263.625 283.839844 264.4375 283.511719 265.234375 C 283.183594 266.027344 282.8125 266.808594 282.40625 267.566406 C 282 268.328125 281.558594 269.066406 281.078125 269.78125 C 280.601562 270.5 280.089844 271.191406 279.542969 271.855469 C 278.996094 272.523438 278.417969 273.160156 277.808594 273.769531 C 277.199219 274.378906 276.558594 274.957031 275.894531 275.503906 C 275.226562 276.050781 274.535156 276.5625 273.820312 277.042969 C 273.101562 277.523438 272.363281 277.964844 271.605469 278.371094 C 270.84375 278.777344 270.066406 279.144531 269.269531 279.476562 C 268.472656 279.804688 267.664062 280.09375 266.835938 280.34375 C 266.011719 280.59375 265.179688 280.804688 264.332031 280.972656 C 263.488281 281.140625 262.636719 281.265625 261.777344 281.351562 C 260.921875 281.4375 260.058594 281.476562 259.199219 281.476562 C 258.335938 281.476562 257.476562 281.4375 256.617188 281.351562 C 255.761719 281.265625 254.910156 281.140625 254.0625 280.972656 C 253.21875 280.804688 252.382812 280.59375 251.558594 280.34375 C 250.734375 280.09375 249.925781 279.804688 249.128906 279.476562 C 248.332031 279.144531 247.554688 278.777344 246.792969 278.371094 C 246.03125 277.964844 245.292969 277.523438 244.578125 277.042969 C 243.859375 276.5625 243.167969 276.050781 242.503906 275.503906 C 241.835938 274.957031 241.199219 274.378906 240.589844 273.769531 C 239.980469 273.160156 239.402344 272.523438 238.855469 271.855469 C 238.308594 271.191406 237.796875 270.5 237.316406 269.78125 C 236.839844 269.066406 236.394531 268.328125 235.988281 267.566406 C 235.582031 266.808594 235.214844 266.027344 234.886719 265.234375 C 234.554688 264.4375 234.265625 263.625 234.015625 262.800781 C 233.765625 261.976562 233.554688 261.140625 233.386719 260.296875 C 233.21875 259.449219 233.09375 258.597656 233.007812 257.742188 C 232.925781 256.882812 232.882812 256.023438 232.882812 255.164062 C 232.882812 254.300781 232.925781 253.441406 233.007812 252.582031 C 233.09375 251.726562 233.21875 250.875 233.386719 250.027344 C 233.554688 249.183594 233.765625 248.347656 234.015625 247.523438 C 234.265625 246.699219 234.554688 245.886719 234.886719 245.089844 C 235.214844 244.296875 235.582031 243.515625 235.988281 242.757812 C 236.394531 241.996094 236.839844 241.257812 237.316406 240.542969 C 237.796875 239.824219 238.308594 239.132812 238.855469 238.46875 C 239.402344 237.800781 239.980469 237.164062 240.589844 236.554688 C 241.199219 235.945312 241.835938 235.367188 242.503906 234.820312 C 243.171875 234.273438 243.863281 233.761719 244.578125 233.28125 C 245.292969 232.800781 246.03125 232.359375 246.792969 231.953125 C 247.554688 231.546875 248.332031 231.179688 249.128906 230.847656 C 249.925781 230.519531 250.734375 230.230469 251.558594 229.980469 C 252.382812 229.730469 253.21875 229.519531 254.066406 229.351562 C 254.910156 229.183594 255.761719 229.058594 256.617188 228.972656 C 257.476562 228.886719 258.335938 228.847656 259.199219 228.847656 C 260.058594 228.847656 260.921875 228.886719 261.777344 228.972656 C 262.636719 229.058594 263.488281 229.183594 264.332031 229.351562 C 265.179688 229.519531 266.011719 229.730469 266.835938 229.980469 C 267.664062 230.230469 268.472656 230.519531 269.269531 230.847656 Z M 269.269531 230.847656 " fill-opacity="1" fill-rule="nonzero"/><path fill="#ffffff" d="M 286.484375 41.726562 C 286.484375 42.589844 286.441406 43.449219 286.359375 44.304688 C 286.273438 45.164062 286.148438 46.015625 285.980469 46.859375 C 285.8125 47.707031 285.601562 48.539062 285.351562 49.367188 C 285.101562 50.191406 284.8125 51 284.480469 51.796875 C 284.152344 52.59375 283.785156 53.371094 283.378906 54.132812 C 282.972656 54.890625 282.527344 55.628906 282.050781 56.347656 C 281.570312 57.0625 281.058594 57.753906 280.511719 58.421875 C 279.964844 59.085938 279.386719 59.726562 278.777344 60.335938 C 278.167969 60.945312 277.53125 61.523438 276.863281 62.070312 C 276.195312 62.617188 275.503906 63.128906 274.789062 63.609375 C 274.074219 64.085938 273.332031 64.527344 272.574219 64.933594 C 271.8125 65.339844 271.035156 65.710938 270.238281 66.039062 C 269.441406 66.371094 268.632812 66.660156 267.808594 66.910156 C 266.984375 67.160156 266.148438 67.367188 265.300781 67.535156 C 264.457031 67.707031 263.605469 67.832031 262.746094 67.914062 C 261.890625 68 261.03125 68.042969 260.167969 68.042969 C 259.304688 68.042969 258.445312 68 257.589844 67.914062 C 256.730469 67.832031 255.878906 67.707031 255.035156 67.535156 C 254.1875 67.367188 253.355469 67.160156 252.527344 66.910156 C 251.703125 66.660156 250.894531 66.371094 250.097656 66.039062 C 249.300781 65.710938 248.523438 65.339844 247.761719 64.933594 C 247.003906 64.527344 246.265625 64.085938 245.546875 63.609375 C 244.832031 63.128906 244.140625 62.617188 243.472656 62.070312 C 242.808594 61.523438 242.167969 60.945312 241.558594 60.335938 C 240.949219 59.726562 240.371094 59.085938 239.824219 58.421875 C 239.277344 57.753906 238.765625 57.0625 238.289062 56.347656 C 237.808594 55.628906 237.367188 54.890625 236.960938 54.132812 C 236.554688 53.371094 236.183594 52.59375 235.855469 51.796875 C 235.527344 51 235.234375 50.191406 234.984375 49.367188 C 234.734375 48.539062 234.527344 47.707031 234.359375 46.859375 C 234.191406 46.015625 234.0625 45.164062 233.980469 44.304688 C 233.894531 43.449219 233.851562 42.589844 233.851562 41.726562 C 233.851562 40.863281 233.894531 40.003906 233.980469 39.148438 C 234.0625 38.289062 234.191406 37.4375 234.359375 36.59375 C 234.527344 35.746094 234.734375 34.910156 234.984375 34.085938 C 235.234375 33.261719 235.527344 32.453125 235.855469 31.65625 C 236.183594 30.859375 236.554688 30.082031 236.960938 29.320312 C 237.367188 28.5625 237.808594 27.824219 238.289062 27.105469 C 238.765625 26.390625 239.277344 25.699219 239.824219 25.03125 C 240.371094 24.367188 240.949219 23.726562 241.558594 23.117188 C 242.167969 22.507812 242.808594 21.929688 243.472656 21.382812 C 244.140625 20.835938 244.832031 20.324219 245.546875 19.84375 C 246.265625 19.367188 247.003906 18.925781 247.761719 18.519531 C 248.523438 18.109375 249.300781 17.742188 250.097656 17.414062 C 250.894531 17.082031 251.703125 16.792969 252.527344 16.542969 C 253.355469 16.292969 254.1875 16.085938 255.035156 15.914062 C 255.878906 15.746094 256.730469 15.621094 257.589844 15.535156 C 258.445312 15.453125 259.304688 15.410156 260.167969 15.410156 C 261.03125 15.410156 261.890625 15.453125 262.746094 15.535156 C 263.605469 15.621094 264.457031 15.746094 265.300781 15.914062 C 266.148438 16.085938 266.984375 16.292969 267.808594 16.542969 C 268.632812 16.792969 269.441406 17.082031 270.238281 17.414062 C 271.035156 17.742188 271.8125 18.109375 272.574219 18.519531 C 273.332031 18.925781 274.074219 19.367188 274.789062 19.84375 C 275.503906 20.324219 276.195312 20.835938 276.863281 21.382812 C 277.53125 21.929688 278.167969 22.507812 278.777344 23.117188 C 279.386719 23.726562 279.964844 24.367188 280.511719 25.03125 C 281.058594 25.699219 281.570312 26.390625 282.050781 27.105469 C 282.527344 27.824219 282.972656 28.5625 283.378906 29.320312 C 283.785156 30.082031 284.152344 30.859375 284.480469 31.65625 C 284.8125 32.453125 285.101562 33.261719 285.351562 34.085938 C 285.601562 34.910156 285.8125 35.746094 285.980469 36.59375 C 286.148438 37.4375 286.273438 38.289062 286.359375 39.148438 C 286.441406 40.003906 286.484375 40.863281 286.484375 41.726562 Z M 286.484375 41.726562 " fill-opacity="1" fill-rule="nonzero"/><path fill="#22d3ee" d="M 146.195312 116.273438 L 146.195312 183.660156 C 136.890625 183.660156 128.46875 179.886719 122.371094 173.792969 C 116.273438 167.695312 112.503906 159.269531 112.503906 149.964844 C 112.503906 140.660156 116.273438 132.238281 122.371094 126.140625 C 128.46875 120.042969 136.890625 116.273438 146.195312 116.273438 Z M 146.195312 116.273438 " fill-opacity="1" fill-rule="evenodd"/><path fill="#ffffff" d="M 146.195312 87.84375 L 146.195312 110.4375 C 135.28125 110.4375 125.398438 114.863281 118.246094 122.015625 C 111.09375 129.167969 106.667969 139.050781 106.667969 149.964844 C 106.667969 160.882812 111.09375 170.761719 118.246094 177.917969 C 125.398438 185.070312 135.28125 189.496094 146.195312 189.496094 L 146.195312 212.089844 C 129.042969 212.089844 113.511719 205.136719 102.269531 193.894531 C 91.027344 182.652344 84.074219 167.121094 84.074219 149.964844 C 84.074219 132.8125 91.027344 117.28125 102.269531 106.039062 C 113.511719 94.796875 129.042969 87.84375 146.195312 87.84375 Z M 146.195312 87.84375 " fill-opacity="1" fill-rule="evenodd"/><g clip-path="url(#e6d6b440cf)"><path fill="#22d3ee" d="M 146.195312 289.734375 L 135.167969 289.734375 C 128.761719 289.734375 125.058594 284.324219 123.535156 278.101562 L 117.179688 252.179688 C 109.175781 249.914062 101.5625 246.726562 94.441406 242.757812 L 71.617188 256.597656 C 66.136719 259.917969 59.695312 261.128906 55.164062 256.597656 L 39.566406 241 C 35.035156 236.46875 36.246094 230.023438 39.566406 224.546875 L 53.402344 201.726562 C 49.347656 194.464844 46.214844 186.824219 43.988281 178.984375 L 18.0625 172.628906 C 11.839844 171.105469 6.425781 167.402344 6.425781 160.996094 L 6.425781 138.9375 C 6.425781 132.53125 11.839844 128.828125 18.0625 127.304688 L 43.980469 120.949219 C 46.25 112.945312 49.433594 105.332031 53.40625 98.210938 L 39.566406 75.386719 C 36.246094 69.90625 35.035156 63.464844 39.566406 58.933594 L 55.164062 43.335938 C 59.695312 38.804688 66.136719 40.015625 71.617188 43.335938 L 94.4375 57.171875 C 101.699219 53.117188 109.339844 49.984375 117.179688 47.757812 L 123.535156 21.832031 C 125.058594 15.609375 128.761719 10.195312 135.167969 10.195312 L 146.195312 10.195312 L 146.195312 82.007812 C 127.429688 82.007812 110.441406 89.613281 98.144531 101.914062 C 85.84375 114.210938 78.238281 131.199219 78.238281 149.964844 C 78.238281 168.730469 85.84375 185.722656 98.144531 198.019531 C 110.441406 210.316406 127.429688 217.925781 146.195312 217.925781 Z M 146.195312 289.734375 " fill-opacity="1" fill-rule="evenodd"/></g></svg>